<mxfile host="app.diagrams.net" modified="2024-04-20T18:06:21.191Z" agent="Mozilla/5.0 (X11; Ubuntu; Linux x86_64; rv:124.0) Gecko/20100101 Firefox/124.0" version="23.1.2" etag="jvcyJ46gUyAV1egCc5EJ" type="github">
  <diagram name="PÃ¡gina-1" id="dbABttjyb5-0hZcLdUrQ">
    <mxGraphModel>
      <root>
        <mxCell id="0" />
        <mxCell id="1" parent="0" />
      </root>
    </mxGraphModel>
  </diagram>
</mxfile>
